<svg width="919" height="921" viewBox="0 0 919 921" fill="none" xmlns="http://www.w3.org/2000/svg">
<path d="M709 547L596 690L787 784.5L709 547Z" fill="#FA7340"/>
<path d="M461 920L326.5 690L136 784.5L461 920Z" fill="#45BF72"/>
<path d="M786 135L708.5 370.5L919 460L786 135Z" fill="#C84599"/>
<path d="M134 134.5L213 370L326 229.5L134 134.5Z" fill="#3B74C8"/>
<path d="M0 460L214 370.5L134 134.5L0 460Z" fill="#3F8BD4"/>
<path d="M461 460L326 230L213 370L461 460Z" fill="#3FA5CC"/>
<path d="M212.5 370.5L462.134 460.943L326.065 229.123L212.5 370.5ZM459.867 459.057L213.829 369.769L325.936 230.877L459.867 459.057Z" fill="#3FA5CC"/>
<path d="M461 460L326 690.5L212.5 547L461 460Z" fill="#E7C637"/>
<path d="M461 460L596 230L709 370L461 460Z" fill="#F4B02E"/>
<path d="M709.5 370.5L461 460L595.935 229.123L709.5 370.5ZM462.133 459.057L708.171 369.769L596.064 230.877L462.133 459.057Z" fill="#F4B02E"/>
<path d="M461 460L596 690L709.5 546.5L461 460Z" fill="#F2AA2B"/>
<path d="M461 230L461 -5.90104e-06L326 230L461 230Z" fill="#3F76D1"/>
<path d="M461 690L461 460L326 690L461 690Z" fill="#F9C933"/>
<path d="M461 230L461 460L326 230L461 230Z" fill="#5E7FD1"/>
<path d="M461 690L461 920L326 690L461 690Z" fill="#75D06A"/>
<path d="M461 230L461 -5.90104e-06L596 230L461 230Z" fill="#9A64C7"/>
<path d="M460.999 690L460.999 460L596 690L460.999 690Z" fill="#F4972F"/>
<path d="M460.499 690.5L596.873 690.5L461 460L460.499 690.5ZM595.126 689.5L461.499 689.5L461.499 461.84L595.126 689.5Z" fill="#F4972F"/>
<path d="M461 230L461 460L596 230L461 230Z" fill="#E46A93"/>
<path d="M461 690L461 920L596 690L461 690Z" fill="#F9673F"/>
<path d="M213 547.25V370.25L461 459.996L213 547.25Z" fill="#78CC72"/>
<path d="M709 547.25V370.25L461 459.996L709 547.25Z" fill="#F7C630"/>
<path d="M213 547.25V370.25L0 460L213 547.25Z" fill="#45BCD4"/>
<path d="M709 547.25V370.25L919 459.996L709 547.25Z" fill="#F48B32"/>
<path d="M134 134.5L326 230L461 0L134 134.5Z" fill="#395ABD"/>
<path d="M786 135L461 0L596 230L786 135Z" fill="#7253BF"/>
<path d="M596 230L709 370L786 135L596 230Z" fill="#A277CE"/>
<path d="M136 785L213 547.134L0 460L136 785Z" fill="#24A788"/>
<path d="M136 784.5L213 547L326 690.5L136 784.5Z" fill="#5EC26D"/>
<path d="M787 784.5L709 547L919 460L787 784.5Z" fill="#E24D70"/>
<path d="M787 784.5L596 690L461 920L787 784.5Z" fill="#F35539"/>
<path d="M786 136L919 461L787 785.5L461 921L136 786L0 461L134 135.5L461 1L786 136Z" fill="#45BCD4" fill-opacity="0.01"/>
</svg>
